<svg width="20" height="20" viewBox="0 0 20 20" fill="none" xmlns="http://www.w3.org/2000/svg">
<path fill-rule="evenodd" clip-rule="evenodd" d="M10 18.3333C14.6024 18.3333 18.3333 14.6024 18.3333 10C18.3333 5.39763 14.6024 1.66667 10 1.66667C5.39763 1.66667 1.66667 5.39763 1.66667 10C1.66667 14.6024 5.39763 18.3333 10 18.3333ZM10 20C4.47715 20 0 15.5228 0 10C0 4.47715 4.47715 0 10 0C15.5228 0 20 4.47715 20 10C20 15.5228 15.5228 20 10 20Z" fill="#EB4646"/>
<path d="M10 9.11125L13.1113 6L14 6.88875L10.8887 10L14 13.1113L13.1113 14L10 10.8887L6.88875 14L6 13.1113L9.11125 10L6 6.88875L6.88875 6L10 9.11125Z" fill="#EB4646"/>
</svg>
